Dinish-CondensedRegular.ufo
<glyph name="exclam" format="2">
  <advance width="208"/>
  <unicode hex="0021"/>
  <outline>
    <contour>
      <point x="75" y="201" type="line"/>
      <point x="133" y="201" type="line"/>
      <point x="148" y="707" type="line"/>
      <point x="60" y="707" type="line"/>
    </contour>
    <contour>
      <point x="65" y="0" type="line"/>
      <point x="144" y="0" type="line"/>
      <point x="144" y="99" type="line"/>
      <point x="65" y="99" type="line"/>
    </contour>
  </outline>
</glyph>
<glyph name="parenleft" format="2">
  <advance width="265"/>
  <unicode hex="0028"/>
  <outline>
    <contour>
      <point x="214" y="-86" type="line"/>
      <point x="154.398" y="46.4481"/>
      <point x="122" y="195.058"/>
      <point x="122" y="336" type="curve" smooth="yes"/>
      <point x="122" y="476.275"/>
      <point x="154.118" y="623.597"/>
      <point x="214" y="758" type="curve"/>
      <point x="154" y="758" type="line"/>
      <point x="86.2942" y="626.571"/>
      <point x="51" y="481.968"/>
      <point x="51" y="336" type="curve" smooth="yes"/>
      <point x="51" y="190.821"/>
      <point x="86.6601" y="44.7187"/>
      <point x="154" y="-86" type="curve"/>
    </contour>
  </outline>
</glyph>
<glyph name="zero" format="2">
  <advance width="412"/>
  <unicode hex="0030"/>
  <outline>
    <contour>
      <point x="207" y="-9" type="curve" smooth="yes"/>
      <point x="308.333" y="-9"/>
      <point x="359" y="53.3333"/>
      <point x="359" y="178" type="curve" smooth="yes"/>
      <point x="359" y="529" type="line" smooth="yes"/>
      <point x="359" y="653.668"/>
      <point x="309" y="716"/>
      <point x="207" y="716" type="curve" smooth="yes"/>
      <point x="104.331" y="716"/>
      <point x="53" y="653"/>
      <point x="53" y="529" type="curve" smooth="yes"/>
      <point x="53" y="178" type="line" smooth="yes"/>
      <point x="53" y="53.3333"/>
      <point x="104.333" y="-9"/>
    </contour>
    <contour>
      <point x="207" y="57" type="curve" smooth="yes"/>
      <point x="148.54" y="57"/>
      <point x="128" y="91.3207"/>
      <point x="128" y="189" type="curve" smooth="yes"/>
      <point x="128" y="517" type="line" smooth="yes"/>
      <point x="128" y="614.679"/>
      <point x="148.54" y="649"/>
      <point x="207" y="649" type="curve" smooth="yes"/>
      <point x="265.091" y="649"/>
      <point x="285" y="615.308"/>
      <point x="285" y="517" type="curve" smooth="yes"/>
      <point x="285" y="189" type="line" smooth="yes"/>
      <point x="285" y="95.1349"/>
      <point x="262.466" y="57"/>
    </contour>
  </outline>
</glyph>
<glyph name="two" format="2">
  <advance width="401"/>
  <unicode hex="0032"/>
  <outline>
    <contour>
      <point x="48" y="0" type="line"/>
      <point x="350" y="0" type="line"/>
      <point x="350" y="67" type="line"/>
      <point x="134" y="67" type="line"/>
      <point x="306" y="372" type="line" smooth="yes"/>
      <point x="339.418" y="431.259"/>
      <point x="353" y="470.702"/>
      <point x="353" y="527" type="curve" smooth="yes"/>
      <point x="353" y="565" type="line" smooth="yes"/>
      <point x="353" y="658.022"/>
      <point x="294.638" y="716"/>
      <point x="201" y="716" type="curve" smooth="yes"/>
      <point x="106.693" y="716"/>
      <point x="48" y="657.691"/>
      <point x="48" y="564" type="curve" smooth="yes"/>
      <point x="48" y="516" type="line"/>
      <point x="122" y="516" type="line"/>
      <point x="122" y="557" type="line" smooth="yes"/>
      <point x="122" y="614.579"/>
      <point x="150.435" y="649"/>
      <point x="198" y="649" type="curve" smooth="yes"/>
      <point x="251.462" y="649"/>
      <point x="279" y="617.383"/>
      <point x="279" y="556" type="curve" smooth="yes"/>
      <point x="279" y="527" type="line" smooth="yes"/>
      <point x="279" y="485.706"/>
      <point x="268.98" y="451.353"/>
      <point x="244" y="407" type="curve" smooth="yes"/>
      <point x="48" y="59" type="line"/>
    </contour>
  </outline>
</glyph>
<glyph name="three" format="2">
  <advance width="414"/>
  <unicode hex="0033"/>
  <outline>
    <contour>
      <point x="48" y="184" type="line"/>
      <point x="48" y="139" type="line" smooth="yes"/>
      <point x="48" y="44.4625"/>
      <point x="103.991" y="-9"/>
      <point x="203" y="-9" type="curve" smooth="yes"/>
      <point x="305.073" y="-9"/>
      <point x="361" y="49.0506"/>
      <point x="361" y="155" type="curve" smooth="yes"/>
      <point x="361" y="229" type="line" smooth="yes"/>
      <point x="361" y="307.095"/>
      <point x="340.199" y="345.455"/>
      <point x="284" y="371" type="curve"/>
      <point x="335.699" y="394.265"/>
      <point x="357" y="432.781"/>
      <point x="357" y="503" type="curve" smooth="yes"/>
      <point x="357" y="563" type="line" smooth="yes"/>
      <point x="357" y="661.325"/>
      <point x="302.682" y="716"/>
      <point x="205" y="716" type="curve" smooth="yes"/>
      <point x="106.017" y="716"/>
      <point x="50" y="660.344"/>
      <point x="50" y="562" type="curve" smooth="yes"/>
      <point x="50" y="520" type="line"/>
      <point x="124" y="520" type="line"/>
      <point x="124" y="561" type="line" smooth="yes"/>
      <point x="124" y="617.219"/>
      <point x="152.53" y="649"/>
      <point x="203" y="649" type="curve" smooth="yes"/>
      <point x="255.426" y="649"/>
      <point x="284" y="615.84"/>
      <point x="284" y="555" type="curve" smooth="yes"/>
      <point x="284" y="500" type="line" smooth="yes"/>
      <point x="284" y="431.619"/>
      <point x="257.44" y="400"/>
      <point x="200" y="400" type="curve" smooth="yes"/>
      <point x="170" y="400" type="line"/>
      <point x="170" y="334" type="line"/>
      <point x="200" y="334" type="line" smooth="yes"/>
      <point x="259.109" y="334"/>
      <point x="287" y="300.659"/>
      <point x="287" y="230" type="curve" smooth="yes"/>
      <point x="287" y="152" type="line" smooth="yes"/>
      <point x="287" y="90.0482"/>
      <point x="258.126" y="57"/>
      <point x="204" y="57" type="curve" smooth="yes"/>
      <point x="151.909" y="57"/>
      <point x="122" y="89.0976"/>
      <point x="122" y="145" type="curve" smooth="yes"/>
      <point x="122" y="184" type="line"/>
    </contour>
  </outline>
</glyph>
<glyph name="six" format="2">
  <advance width="404"/>
  <unicode hex="0036"/>
  <outline>
    <contour>
      <point x="208" y="707" type="line"/>
      <point x="81" y="404" type="line" smooth="yes"/>
      <point x="55.3762" y="342.866"/>
      <point x="48" y="310.008"/>
      <point x="48" y="257" type="curve" smooth="yes"/>
      <point x="48" y="155" type="line" smooth="yes"/>
      <point x="48" y="53.8023"/>
      <point x="107.356" y="-9"/>
      <point x="203" y="-9" type="curve" smooth="yes"/>
      <point x="296.222" y="-9"/>
      <point x="356" y="54.2941"/>
      <point x="356" y="153" type="curve" smooth="yes"/>
      <point x="356" y="268" type="line" smooth="yes"/>
      <point x="356" y="364.057"/>
      <point x="302.948" y="422"/>
      <point x="215" y="422" type="curve" smooth="yes"/>
      <point x="193" y="422"/>
      <point x="170" y="416.25"/>
      <point x="159" y="408" type="curve"/>
      <point x="283" y="707" type="line"/>
    </contour>
    <contour>
      <point x="203" y="57" type="curve" smooth="yes"/>
      <point x="151.444" y="57"/>
      <point x="123" y="91.1333"/>
      <point x="123" y="153" type="curve" smooth="yes"/>
      <point x="123" y="266" type="line" smooth="yes"/>
      <point x="123" y="323.167"/>
      <point x="152.185" y="356"/>
      <point x="203" y="356" type="curve" smooth="yes"/>
      <point x="253.546" y="356"/>
      <point x="282" y="322.143"/>
      <point x="282" y="262" type="curve" smooth="yes"/>
      <point x="282" y="152" type="line" smooth="yes"/>
      <point x="282" y="91.0137"/>
      <point x="253.715" y="57"/>
    </contour>
  </outline>
</glyph>
<glyph name="D" format="2">
  <advance width="488"/>
  <unicode hex="0044"/>
  <anchor x="207" y="760" name="top"/>
  <anchor x="207" y="-86" name="bottom"/>
  <outline>
    <contour>
      <point x="61" y="0" type="line"/>
      <point x="245" y="0" type="line" smooth="yes"/>
      <point x="365.075" y="0"/>
      <point x="435" y="78.7579"/>
      <point x="435" y="214" type="curve" smooth="yes"/>
      <point x="435" y="493" type="line" smooth="yes"/>
      <point x="435" y="628.909"/>
      <point x="365.667" y="707"/>
      <point x="245" y="707" type="curve" smooth="yes"/>
      <point x="61" y="707" type="line"/>
    </contour>
    <contour>
      <point x="136" y="67" type="line"/>
      <point x="136" y="640" type="line"/>
      <point x="245" y="640" type="line" smooth="yes"/>
      <point x="320.914" y="640"/>
      <point x="360" y="587.319"/>
      <point x="360" y="485" type="curve" smooth="yes"/>
      <point x="360" y="213" type="line" smooth="yes"/>
      <point x="360" y="117.783"/>
      <point x="320" y="67"/>
      <point x="245" y="67" type="curve" smooth="yes"/>
    </contour>
  </outline>
  <guideline angle="90" name="h1" x="207" y="0"/>
</glyph>
<glyph name="E" format="2">
  <advance width="412"/>
  <unicode hex="0045"/>
  <anchor x="232" y="760" name="top"/>
  <anchor x="232" y="-86" name="bottom"/>
  <anchor x="376" y="0" name="b.cedilla"/>
  <outline>
    <contour>
      <point x="61" y="0" type="line"/>
      <point x="376" y="0" type="line"/>
      <point x="376" y="67" type="line"/>
      <point x="135" y="67" type="line"/>
      <point x="135" y="326" type="line"/>
      <point x="342" y="326" type="line"/>
      <point x="342" y="393" type="line"/>
      <point x="135" y="393" type="line"/>
      <point x="135" y="640" type="line"/>
      <point x="376" y="640" type="line"/>
      <point x="376" y="707" type="line"/>
      <point x="61" y="707" type="line"/>
    </contour>
  </outline>
  <guideline angle="90" name="h1" x="232" y="0"/>
</glyph>
<glyph name="F" format="2">
  <advance width="406"/>
  <unicode hex="0046"/>
  <anchor x="231" y="760" name="top"/>
  <anchor x="236" y="-86" name="bottom"/>
  <outline>
    <contour>
      <point x="115.64" y="323" type="line"/>
      <point x="343" y="323" type="line"/>
      <point x="343" y="390" type="line"/>
      <point x="115.64" y="390" type="line"/>
    </contour>
    <contour>
      <point x="115.82" y="640" type="line"/>
      <point x="376" y="640" type="line"/>
      <point x="376" y="707" type="line"/>
      <point x="115.82" y="707" type="line"/>
    </contour>
    <contour>
      <point x="61" y="0" type="line"/>
      <point x="136" y="0" type="line"/>
      <point x="136" y="707.034" type="line"/>
      <point x="61" y="707" type="line"/>
    </contour>
  </outline>
  <guideline angle="90" name="h1" x="231" y="0"/>
</glyph>
<glyph name="H" format="2">
  <advance width="489"/>
  <unicode hex="0048"/>
  <anchor x="245" y="760" name="top"/>
  <anchor x="244" y="-86" name="bottom"/>
  <outline>
    <contour>
      <point x="115.64" y="327" type="line"/>
      <point x="373.36" y="327" type="line"/>
      <point x="373.36" y="393" type="line"/>
      <point x="115.64" y="393" type="line"/>
    </contour>
    <contour>
      <point x="353" y="0" type="line"/>
      <point x="428" y="0" type="line"/>
      <point x="428" y="707" type="line"/>
      <point x="353" y="707" type="line"/>
    </contour>
    <contour>
      <point x="61" y="0" type="line"/>
      <point x="136" y="0" type="line"/>
      <point x="136" y="707" type="line"/>
      <point x="61" y="707" type="line"/>
    </contour>
  </outline>
  <guideline angle="90" name="h1" x="245" y="0"/>
</glyph>
<glyph name="J" format="2">
  <advance width="269"/>
  <unicode hex="004A"/>
  <anchor x="165" y="760" name="top"/>
  <anchor x="236" y="-86" name="bottom"/>
  <outline>
    <contour>
      <point x="25" y="0" type="line"/>
      <point x="60" y="0" type="line" smooth="yes"/>
      <point x="152.657" y="0"/>
      <point x="202" y="48.6479"/>
      <point x="202" y="140" type="curve" smooth="yes"/>
      <point x="202" y="707" type="line"/>
      <point x="127" y="707" type="line"/>
      <point x="127" y="148" type="line" smooth="yes"/>
      <point x="127" y="95.3699"/>
      <point x="101.432" y="67"/>
      <point x="54" y="67" type="curve" smooth="yes"/>
      <point x="25" y="67" type="line"/>
    </contour>
  </outline>
  <guideline angle="90" name="h1" x="165" y="0"/>
</glyph>
<glyph name="K" format="2">
  <advance width="472"/>
  <unicode hex="004B"/>
  <anchor x="230" y="760" name="top"/>
  <anchor x="230" y="-86" name="bottom"/>
  <outline>
    <contour>
      <point x="61" y="0" type="line"/>
      <point x="136" y="0" type="line"/>
      <point x="136" y="189" type="line"/>
      <point x="226" y="343" type="line"/>
      <point x="384" y="0" type="line"/>
      <point x="466" y="0" type="line"/>
      <point x="271" y="419" type="line"/>
      <point x="441" y="707" type="line"/>
      <point x="362" y="707" type="line"/>
      <point x="136" y="313" type="line"/>
      <point x="136" y="707" type="line"/>
      <point x="61" y="707" type="line"/>
    </contour>
  </outline>
  <guideline angle="90" name="h1" x="230" y="0"/>
</glyph>
<glyph name="L" format="2">
  <advance width="400"/>
  <unicode hex="004C"/>
  <anchor x="98" y="760" name="top"/>
  <anchor x="218" y="-86" name="bottom"/>
  <anchor x="304" y="397" name="dot"/>
  <outline>
    <contour>
      <point x="61" y="0" type="line"/>
      <point x="376" y="0" type="line"/>
      <point x="376" y="67" type="line"/>
      <point x="136" y="67" type="line"/>
      <point x="136" y="707" type="line"/>
      <point x="61" y="707" type="line"/>
    </contour>
  </outline>
  <guideline angle="90" name="h1" x="98" y="0"/>
</glyph>
<glyph name="P" format="2">
  <advance width="450"/>
  <unicode hex="0050"/>
  <anchor x="226" y="760" name="top"/>
  <anchor x="236" y="-86" name="bottom"/>
  <outline>
    <contour>
      <point x="61" y="0" type="line"/>
      <point x="136" y="0" type="line"/>
      <point x="136" y="299" type="line"/>
      <point x="245" y="299" type="line" smooth="yes"/>
      <point x="365.667" y="299"/>
      <point x="426" y="366.333"/>
      <point x="426" y="501" type="curve" smooth="yes"/>
      <point x="426" y="640.397"/>
      <point x="367.48" y="707"/>
      <point x="245" y="707" type="curve" smooth="yes"/>
      <point x="61" y="707" type="line"/>
    </contour>
    <contour>
      <point x="136" y="366" type="line"/>
      <point x="136" y="640" type="line"/>
      <point x="241" y="640" type="line" smooth="yes"/>
      <point x="318.396" y="640"/>
      <point x="352" y="597.919"/>
      <point x="352" y="501" type="curve" smooth="yes"/>
      <point x="352" y="408.057"/>
      <point x="317.42" y="366"/>
      <point x="241" y="366" type="curve" smooth="yes"/>
    </contour>
  </outline>
  <guideline angle="90" name="h1" x="226" y="0"/>
</glyph>
<glyph name="Q" format="2">
  <advance width="489"/>
  <unicode hex="0051"/>
  <anchor x="245" y="760" name="top"/>
  <anchor x="236" y="-86" name="bottom"/>
  <outline>
    <contour>
      <point x="245" y="-8" type="curve" smooth="yes"/>
      <point x="366.238" y="-8"/>
      <point x="436" y="70.1624"/>
      <point x="436" y="206" type="curve" smooth="yes"/>
      <point x="436" y="501" type="line" smooth="yes"/>
      <point x="436" y="638.288"/>
      <point x="366.963" y="716"/>
      <point x="245" y="716" type="curve" smooth="yes"/>
      <point x="122.107" y="716"/>
      <point x="53" y="638.615"/>
      <point x="53" y="501" type="curve" smooth="yes"/>
      <point x="53" y="206" type="line" smooth="yes"/>
      <point x="53" y="70.0208"/>
      <point x="123" y="-8"/>
    </contour>
    <contour>
      <point x="246" y="59" type="curve" smooth="yes"/>
      <point x="167.601" y="59"/>
      <point x="128" y="107.998"/>
      <point x="128" y="205" type="curve" smooth="yes"/>
      <point x="128" y="494" type="line" smooth="yes"/>
      <point x="128" y="597.333"/>
      <point x="166.823" y="648"/>
      <point x="246" y="648" type="curve" smooth="yes"/>
      <point x="322.165" y="648"/>
      <point x="361" y="595.994"/>
      <point x="361" y="494" type="curve" smooth="yes"/>
      <point x="361" y="205" type="line" smooth="yes"/>
      <point x="361" y="109.783"/>
      <point x="321" y="59"/>
    </contour>
    <contour>
      <point x="342" y="-146" type="line"/>
      <point x="403" y="-122" type="line"/>
      <point x="340.136" y="30.1967" type="line"/>
      <point x="278.157" y="9.20514" type="line"/>
    </contour>
  </outline>
  <guideline angle="90" name="h1" x="245" y="0"/>
</glyph>
<glyph name="R" format="2">
  <advance width="477"/>
  <unicode hex="0052"/>
  <anchor x="226" y="760" name="top"/>
  <anchor x="226" y="-86" name="bottom"/>
  <outline>
    <contour>
      <point x="61" y="0" type="line"/>
      <point x="136" y="0" type="line"/>
      <point x="136" y="309" type="line"/>
      <point x="250" y="309" type="line"/>
      <point x="367" y="0" type="line"/>
      <point x="446" y="0" type="line"/>
      <point x="322" y="321" type="line"/>
      <point x="391.333" y="343.667"/>
      <point x="426" y="405.667"/>
      <point x="426" y="507" type="curve" smooth="yes"/>
      <point x="426" y="643.996"/>
      <point x="369.927" y="707"/>
      <point x="248" y="707" type="curve" smooth="yes"/>
      <point x="61" y="707" type="line"/>
    </contour>
    <contour>
      <point x="136" y="375" type="line"/>
      <point x="136" y="640" type="line"/>
      <point x="247" y="640" type="line" smooth="yes"/>
      <point x="319.261" y="640"/>
      <point x="351" y="599.41"/>
      <point x="351" y="507" type="curve" smooth="yes"/>
      <point x="351" y="417.308"/>
      <point x="317.667" y="375"/>
      <point x="247" y="375" type="curve" smooth="yes"/>
    </contour>
  </outline>
  <guideline angle="90" name="h1" x="226" y="0"/>
</glyph>
<glyph name="T" format="2">
  <advance width="376"/>
  <unicode hex="0054"/>
  <anchor x="188" y="-86" name="bottom"/>
  <anchor x="188" y="760" name="top"/>
  <anchor x="156" y="0" name="b.cedilla"/>
  <outline>
    <contour>
      <point x="152" y="0" type="line"/>
      <point x="225" y="0" type="line"/>
      <point x="225" y="640" type="line"/>
      <point x="371" y="640" type="line"/>
      <point x="371" y="707" type="line"/>
      <point x="6" y="707" type="line"/>
      <point x="6" y="640" type="line"/>
      <point x="152" y="640" type="line"/>
    </contour>
  </outline>
  <guideline angle="90" name="h1" x="188" y="0"/>
</glyph>
<glyph name="U" format="2">
  <advance width="491"/>
  <unicode hex="0055"/>
  <anchor x="246" y="760" name="top"/>
  <anchor x="246" y="-86" name="bottom"/>
  <anchor x="246" y="760" name="t.ring"/>
  <anchor x="272" y="0" name="b.cedilla"/>
  <outline>
    <contour>
      <point x="61" y="707" type="line"/>
      <point x="61" y="180" type="line" smooth="yes"/>
      <point x="61" y="69.8811"/>
      <point x="137.638" y="-8"/>
      <point x="246" y="-8" type="curve" smooth="yes"/>
      <point x="356.244" y="-8"/>
      <point x="430" y="67.3595"/>
      <point x="430" y="180" type="curve" smooth="yes"/>
      <point x="430" y="707" type="line"/>
      <point x="354" y="707" type="line"/>
      <point x="354" y="184" type="line" smooth="yes"/>
      <point x="354" y="105.925"/>
      <point x="314.081" y="59"/>
      <point x="246" y="59" type="curve" smooth="yes"/>
      <point x="177.591" y="59"/>
      <point x="137" y="106.262"/>
      <point x="137" y="184" type="curve" smooth="yes"/>
      <point x="137" y="707" type="line"/>
    </contour>
  </outline>
  <guideline angle="90" name="h1" x="246" y="0"/>
</glyph>
<glyph name="X" format="2">
  <advance width="425"/>
  <unicode hex="0058"/>
  <anchor x="214" y="760" name="top"/>
  <anchor x="236" y="-86" name="bottom"/>
  <outline>
    <contour>
      <point x="9" y="0" type="line"/>
      <point x="93" y="0" type="line"/>
      <point x="213" y="293" type="line"/>
      <point x="332" y="0" type="line"/>
      <point x="417" y="0" type="line"/>
      <point x="255" y="368" type="line"/>
      <point x="403" y="707" type="line"/>
      <point x="319" y="707" type="line"/>
      <point x="214" y="441" type="line"/>
      <point x="106" y="707" type="line"/>
      <point x="23" y="707" type="line"/>
      <point x="170" y="367" type="line"/>
    </contour>
  </outline>
  <guideline angle="90" name="h1" x="214" y="0"/>
</glyph>
<glyph name="Z" format="2">
  <advance width="394"/>
  <unicode hex="005A"/>
  <anchor x="201" y="760" name="top"/>
  <anchor x="199" y="-86" name="bottom"/>
  <outline>
    <contour>
      <point x="31" y="0" type="line"/>
      <point x="367" y="0" type="line"/>
      <point x="367" y="67" type="line"/>
      <point x="103" y="67" type="line"/>
      <point x="359" y="640" type="line"/>
      <point x="359" y="707" type="line"/>
      <point x="42" y="707" type="line"/>
      <point x="42" y="640" type="line"/>
      <point x="286" y="640" type="line"/>
      <point x="31" y="67" type="line"/>
    </contour>
  </outline>
  <guideline angle="90" name="h1" x="201" y="0"/>
</glyph>
<glyph name="bracketleft" format="2">
  <advance width="259"/>
  <unicode hex="005B"/>
  <outline>
    <contour>
      <point x="61" y="-86" type="line"/>
      <point x="208" y="-86" type="line"/>
      <point x="208" y="-19" type="line"/>
      <point x="132" y="-19" type="line"/>
      <point x="132" y="691" type="line"/>
      <point x="208" y="691" type="line"/>
      <point x="208" y="758" type="line"/>
      <point x="61" y="758" type="line"/>
    </contour>
  </outline>
</glyph>
<glyph name="b" format="2">
  <advance width="421"/>
  <unicode hex="0062"/>
  <anchor x="230" y="590" name="top"/>
  <anchor x="230" y="-86" name="bottom"/>
  <outline>
    <contour>
      <point x="60" y="0" type="line"/>
      <point x="130" y="0" type="line"/>
      <point x="130" y="48" type="line"/>
      <point x="153.333" y="10.6667"/>
      <point x="187" y="-8"/>
      <point x="231" y="-8" type="curve" smooth="yes"/>
      <point x="320.185" y="-8"/>
      <point x="371" y="57.3051"/>
      <point x="371" y="171.922" type="curve" smooth="yes"/>
      <point x="371" y="356.842" type="line" smooth="yes"/>
      <point x="371" y="472.04"/>
      <point x="319.779" y="537.764"/>
      <point x="230" y="537.764" type="curve" smooth="yes"/>
      <point x="186.662" y="537.764"/>
      <point x="153.333" y="517.178"/>
      <point x="130" y="478" type="curve"/>
      <point x="130" y="707" type="line"/>
      <point x="60" y="707" type="line"/>
    </contour>
    <contour>
      <point x="218" y="54" type="curve" smooth="yes"/>
      <point x="160.704" y="54"/>
      <point x="130" y="97.6927"/>
      <point x="130" y="179.227" type="curve" smooth="yes"/>
      <point x="130" y="348.533" type="line" smooth="yes"/>
      <point x="130" y="432.056"/>
      <point x="160.231" y="475.764"/>
      <point x="218" y="475.764" type="curve" smooth="yes"/>
      <point x="273.333" y="475.764"/>
      <point x="301" y="433.687"/>
      <point x="301" y="349.535" type="curve" smooth="yes"/>
      <point x="301" y="180.229" type="line" smooth="yes"/>
      <point x="301" y="96.4108"/>
      <point x="273.113" y="54"/>
    </contour>
  </outline>
  <guideline angle="90" name="vertical" x="230" y="0"/>
  <guideline angle="0" name="horizontal" x="0" y="590"/>
</glyph>
<glyph name="j" format="2">
  <advance width="199"/>
  <unicode hex="006A"/>
  <outline>
    <contour>
      <point x="62" y="613" type="line"/>
      <point x="133" y="613" type="line"/>
      <point x="133" y="706" type="line"/>
      <point x="62" y="706" type="line"/>
    </contour>
    <contour>
      <point x="-26" y="-156" type="line"/>
      <point x="-8" y="-156" type="line" smooth="yes"/>
      <point x="83.3333" y="-156"/>
      <point x="133" y="-106.333"/>
      <point x="133" y="-15" type="curve" smooth="yes"/>
      <point x="133" y="529" type="line"/>
      <point x="62" y="529" type="line"/>
      <point x="62" y="-12" type="line" smooth="yes"/>
      <point x="62" y="-66.0041"/>
      <point x="38.6667" y="-93"/>
      <point x="-10" y="-93" type="curve" smooth="yes"/>
      <point x="-26" y="-93" type="line"/>
    </contour>
  </outline>
</glyph>
<glyph name="t" format="2">
  <advance width="302"/>
  <unicode hex="0074"/>
  <anchor x="156" y="-86" name="bottom"/>
  <anchor x="130" y="760" name="top"/>
  <outline>
    <contour>
      <point x="258" y="0" type="line"/>
      <point x="258" y="61" type="line"/>
      <point x="244" y="61" type="line" smooth="yes"/>
      <point x="190.675" y="61"/>
      <point x="165" y="87.3249"/>
      <point x="165" y="142" type="curve" smooth="yes"/>
      <point x="165" y="475" type="line"/>
      <point x="266" y="475" type="line"/>
      <point x="266" y="529" type="line"/>
      <point x="165" y="529" type="line"/>
      <point x="165" y="672" type="line"/>
      <point x="95" y="640" type="line"/>
      <point x="95" y="529" type="line"/>
      <point x="28" y="529" type="line"/>
      <point x="28" y="475" type="line"/>
      <point x="95" y="475" type="line"/>
      <point x="95" y="139" type="line" smooth="yes"/>
      <point x="95" y="46.3309"/>
      <point x="144.333" y="0"/>
      <point x="241" y="0" type="curve" smooth="yes"/>
    </contour>
  </outline>
  <guideline angle="90" name="h1" x="130" y="0"/>
</glyph>
<glyph name="u" format="2">
  <advance width="425"/>
  <unicode hex="0075"/>
  <anchor x="212" y="590" name="top"/>
  <anchor x="212" y="-86" name="bottom"/>
  <anchor x="212" y="590" name="t.ring"/>
  <anchor x="237" y="0" name="b.cedilla"/>
  <outline>
    <contour>
      <point x="60" y="529" type="line"/>
      <point x="60" y="163" type="line" smooth="yes"/>
      <point x="60" y="59.163"/>
      <point x="102.708" y="-8"/>
      <point x="213" y="-8" type="curve" smooth="yes"/>
      <point x="324.512" y="-8"/>
      <point x="366" y="57.9837"/>
      <point x="366" y="163" type="curve" smooth="yes"/>
      <point x="366" y="529" type="line"/>
      <point x="296" y="529" type="line"/>
      <point x="296" y="186.987" type="line" smooth="yes"/>
      <point x="296" y="104.283"/>
      <point x="282.812" y="54"/>
      <point x="214" y="54" type="curve" smooth="yes"/>
      <point x="145.188" y="54"/>
      <point x="130" y="104.281"/>
      <point x="130" y="186.987" type="curve" smooth="yes"/>
      <point x="130" y="529" type="line"/>
    </contour>
  </outline>
  <guideline angle="90" name="h1" x="212" y="0"/>
</glyph>
<glyph name="w" format="2">
  <advance width="590"/>
  <unicode hex="0077"/>
  <anchor x="294" y="590" name="top"/>
  <anchor x="294" y="-86" name="bottom"/>
  <anchor x="294" y="578" name="t.ring"/>
  <outline>
    <contour>
      <point x="135" y="0" type="line"/>
      <point x="203" y="0" type="line"/>
      <point x="294" y="400" type="line"/>
      <point x="387" y="0" type="line"/>
      <point x="454" y="0" type="line"/>
      <point x="575" y="529" type="line"/>
      <point x="499" y="529" type="line"/>
      <point x="419" y="113" type="line"/>
      <point x="324" y="529" type="line"/>
      <point x="264" y="529" type="line"/>
      <point x="171" y="113" type="line"/>
      <point x="91" y="529" type="line"/>
      <point x="15" y="529" type="line"/>
    </contour>
  </outline>
  <guideline angle="90" name="h1" x="294" y="0"/>
</glyph>
<glyph name="x" format="2">
  <advance width="357"/>
  <unicode hex="0078"/>
  <anchor x="177" y="590" name="top"/>
  <anchor x="236" y="-86" name="bottom"/>
  <outline>
    <contour>
      <point x="15" y="0" type="line"/>
      <point x="89" y="0" type="line"/>
      <point x="177" y="197" type="line"/>
      <point x="267" y="0" type="line"/>
      <point x="342" y="0" type="line"/>
      <point x="214" y="280" type="line"/>
      <point x="332" y="529" type="line"/>
      <point x="257" y="529" type="line"/>
      <point x="180" y="354" type="line"/>
      <point x="99" y="529" type="line"/>
      <point x="25" y="529" type="line"/>
      <point x="141" y="275" type="line"/>
    </contour>
  </outline>
  <guideline angle="90" name="h1" x="177" y="0"/>
</glyph>
<glyph name="y" format="2">
  <advance width="379"/>
  <unicode hex="0079"/>
  <anchor x="186" y="590" name="top"/>
  <anchor x="300" y="-108" name="dot"/>
  <anchor x="186" y="578" name="t.ring"/>
  <outline>
    <contour>
      <point x="46" y="-158" type="line"/>
      <point x="56" y="-158" type="line" smooth="yes"/>
      <point x="145.42" y="-158"/>
      <point x="189.637" y="-126.066"/>
      <point x="210" y="-50" type="curve" smooth="yes"/>
      <point x="365" y="529" type="line"/>
      <point x="289" y="529" type="line"/>
      <point x="191" y="125" type="line"/>
      <point x="91" y="529" type="line"/>
      <point x="15" y="529" type="line"/>
      <point x="159" y="-12" type="line"/>
      <point x="155" y="-29" type="line" smooth="yes"/>
      <point x="143.92" y="-76.0909"/>
      <point x="117.562" y="-95"/>
      <point x="63" y="-95" type="curve" smooth="yes"/>
      <point x="46" y="-95" type="line"/>
    </contour>
  </outline>
  <guideline angle="90" name="h1" x="186" y="0"/>
</glyph>
<glyph name="z" format="2">
  <advance width="385"/>
  <unicode hex="007A"/>
  <anchor x="186" y="590" name="top"/>
  <anchor x="186" y="-86" name="bottom"/>
  <outline>
    <contour>
      <point x="51" y="0" type="line"/>
      <point x="334" y="0" type="line"/>
      <point x="334" y="63" type="line"/>
      <point x="126" y="63" type="line"/>
      <point x="334" y="466" type="line"/>
      <point x="334" y="529" type="line"/>
      <point x="51" y="529" type="line"/>
      <point x="51" y="466" type="line"/>
      <point x="259" y="466" type="line"/>
      <point x="51" y="63" type="line"/>
    </contour>
  </outline>
  <guideline angle="90" name="h1" x="186" y="0"/>
</glyph>
<glyph name="braceleft" format="2">
  <advance width="302"/>
  <unicode hex="007B"/>
  <outline>
    <contour>
      <point x="257" y="-86" type="line"/>
      <point x="257" y="-19" type="line"/>
      <point x="232" y="-19" type="line" smooth="yes"/>
      <point x="202" y="-19"/>
      <point x="187" y="-2.33333"/>
      <point x="187" y="31" type="curve" smooth="yes"/>
      <point x="187" y="210" type="line" smooth="yes"/>
      <point x="187" y="288.57"/>
      <point x="172.696" y="319.844"/>
      <point x="128" y="339" type="curve"/>
      <point x="173.579" y="355.93"/>
      <point x="187" y="385.045"/>
      <point x="187" y="467" type="curve" smooth="yes"/>
      <point x="187" y="641" type="line" smooth="yes"/>
      <point x="187" y="674.333"/>
      <point x="202" y="691"/>
      <point x="232" y="691" type="curve" smooth="yes"/>
      <point x="257" y="691" type="line"/>
      <point x="257" y="758" type="line"/>
      <point x="217" y="758" type="line" smooth="yes"/>
      <point x="147" y="758"/>
      <point x="113" y="720.077"/>
      <point x="113" y="642" type="curve" smooth="yes"/>
      <point x="113" y="451" type="line" smooth="yes"/>
      <point x="113" y="393.196"/>
      <point x="95.2749" y="371"/>
      <point x="45" y="371" type="curve"/>
      <point x="45" y="306" type="line"/>
      <point x="94.7391" y="306"/>
      <point x="113" y="283.725"/>
      <point x="113" y="228" type="curve" smooth="yes"/>
      <point x="113" y="30" type="line" smooth="yes"/>
      <point x="113" y="-48.467"/>
      <point x="146.65" y="-86"/>
      <point x="217" y="-86" type="curve" smooth="yes"/>
    </contour>
  </outline>
</glyph>
<glyph name="section" format="2">
  <advance width="438"/>
  <unicode hex="00A7"/>
  <outline>
    <contour>
      <point x="75" y="-6" type="line"/>
      <point x="75" y="-120.829"/>
      <point x="118.773" y="-172"/>
      <point x="217" y="-172" type="curve" smooth="yes"/>
      <point x="313.078" y="-172"/>
      <point x="365" y="-117.973"/>
      <point x="365" y="-18" type="curve" smooth="yes"/>
      <point x="365" y="57.9474"/>
      <point x="341.359" y="101.807"/>
      <point x="289" y="123" type="curve"/>
      <point x="347.667" y="143"/>
      <point x="377" y="196"/>
      <point x="377" y="282" type="curve" smooth="yes"/>
      <point x="377" y="392.493"/>
      <point x="342.833" y="446.35"/>
      <point x="259" y="468" type="curve" smooth="yes"/>
      <point x="179.463" y="488.541"/>
      <point x="154" y="517.076"/>
      <point x="154" y="581" type="curve" smooth="yes"/>
      <point x="154" y="640.667"/>
      <point x="174.267" y="666"/>
      <point x="222" y="666" type="curve" smooth="yes"/>
      <point x="270.896" y="666"/>
      <point x="290" y="638.186"/>
      <point x="290" y="567" type="curve"/>
      <point x="360" y="567" type="line"/>
      <point x="360" y="679.686"/>
      <point x="315.929" y="732"/>
      <point x="221" y="732" type="curve" smooth="yes"/>
      <point x="129.194" y="732"/>
      <point x="79" y="678.624"/>
      <point x="79" y="581" type="curve" smooth="yes"/>
      <point x="79" y="505.922"/>
      <point x="101.626" y="463.15"/>
      <point x="152" y="443" type="curve"/>
      <point x="91.3333" y="422.333"/>
      <point x="61" y="368.667"/>
      <point x="61" y="282" type="curve" smooth="yes"/>
      <point x="61" y="181.686"/>
      <point x="101.72" y="117.712"/>
      <point x="181" y="97" type="curve" smooth="yes"/>
      <point x="268.118" y="74.2405"/>
      <point x="290" y="49.7526"/>
      <point x="290" y="-20" type="curve" smooth="yes"/>
      <point x="290" y="-78.2593"/>
      <point x="266.775" y="-106"/>
      <point x="218" y="-106" type="curve" smooth="yes"/>
      <point x="164.873" y="-106"/>
      <point x="145" y="-78.7763"/>
      <point x="145" y="-6" type="curve"/>
    </contour>
    <contour>
      <point x="220" y="163" type="curve" smooth="yes"/>
      <point x="161.714" y="163"/>
      <point x="135" y="200.4"/>
      <point x="135" y="282" type="curve" smooth="yes"/>
      <point x="135" y="364.627"/>
      <point x="161.472" y="402"/>
      <point x="220" y="402" type="curve" smooth="yes"/>
      <point x="277.667" y="402"/>
      <point x="303" y="365.373"/>
      <point x="303" y="282" type="curve" smooth="yes"/>
      <point x="303" y="201.465"/>
      <point x="276.171" y="163"/>
    </contour>
  </outline>
</glyph>
<glyph name="macron" format="2">
  <advance width="513"/>
  <unicode hex="00AF"/>
  <outline>
    <contour>
      <point x="138" y="604" type="line"/>
      <point x="375" y="604" type="line"/>
      <point x="375" y="667" type="line"/>
      <point x="138" y="667" type="line"/>
    </contour>
  </outline>
</glyph>
<glyph name="degree" format="2">
  <advance width="360"/>
  <unicode hex="00B0"/>
  <outline>
    <contour>
      <point x="53" y="590" type="curve" smooth="yes"/>
      <point x="53" y="518.368"/>
      <point x="107.799" y="464"/>
      <point x="180" y="464" type="curve" smooth="yes"/>
      <point x="252.697" y="464"/>
      <point x="307" y="517.875"/>
      <point x="307" y="590" type="curve" smooth="yes"/>
      <point x="307" y="662.421"/>
      <point x="252.421" y="717"/>
      <point x="180" y="717" type="curve" smooth="yes"/>
      <point x="107.579" y="717"/>
      <point x="53" y="662.421"/>
    </contour>
    <contour>
      <point x="180" y="515" type="curve" smooth="yes"/>
      <point x="137.547" y="515"/>
      <point x="108" y="545.778"/>
      <point x="108" y="590" type="curve" smooth="yes"/>
      <point x="108" y="634.519"/>
      <point x="137.825" y="666"/>
      <point x="180" y="666" type="curve" smooth="yes"/>
      <point x="222.465" y="666"/>
      <point x="253" y="634.21"/>
      <point x="253" y="590" type="curve" smooth="yes"/>
      <point x="253" y="545.462"/>
      <point x="223.35" y="515"/>
    </contour>
  </outline>
</glyph>
<glyph name="paragraph" format="2">
  <advance width="532"/>
  <unicode hex="00B6"/>
  <outline>
    <contour>
      <point x="231" y="-156" type="line"/>
      <point x="299" y="-156" type="line"/>
      <point x="299" y="640" type="line"/>
      <point x="373" y="640" type="line"/>
      <point x="373" y="-156" type="line"/>
      <point x="440" y="-156" type="line"/>
      <point x="440" y="707" type="line"/>
      <point x="264" y="707" type="line" smooth="yes"/>
      <point x="146.863" y="707"/>
      <point x="61" y="616.061"/>
      <point x="61" y="492" type="curve" smooth="yes"/>
      <point x="61" y="371.724"/>
      <point x="129.549" y="284.223"/>
      <point x="231" y="275" type="curve"/>
    </contour>
  </outline>
</glyph>
<glyph name="periodcentered" format="2">
  <advance width="163"/>
  <unicode hex="00B7"/>
  <anchor x="82" y="277" name="_dot"/>
  <outline>
    <contour>
      <point x="42" y="231" type="line"/>
      <point x="122" y="231" type="line"/>
      <point x="122" y="322" type="line"/>
      <point x="42" y="322" type="line"/>
    </contour>
  </outline>
</glyph>
<glyph name="onesuperior" format="2">
  <advance width="203"/>
  <unicode hex="00B9"/>
  <outline>
    <contour>
      <point x="85" y="440" type="line"/>
      <point x="158" y="440" type="line"/>
      <point x="158" y="868" type="line"/>
      <point x="85" y="868" type="line"/>
      <point x="22" y="818" type="line"/>
      <point x="22" y="737" type="line"/>
      <point x="85" y="788" type="line"/>
    </contour>
  </outline>
</glyph>
<glyph name="ordmasculine" format="2">
  <advance width="302"/>
  <unicode hex="00BA"/>
  <outline>
    <contour>
      <point x="152" y="435" type="curve" smooth="yes"/>
      <point x="225.382" y="435"/>
      <point x="260" y="474.426"/>
      <point x="260" y="558" type="curve" smooth="yes"/>
      <point x="260" y="644" type="line" smooth="yes"/>
      <point x="260" y="727.247"/>
      <point x="225.694" y="766"/>
      <point x="152" y="766" type="curve" smooth="yes"/>
      <point x="76.929" y="766"/>
      <point x="42" y="727.261"/>
      <point x="42" y="644" type="curve" smooth="yes"/>
      <point x="42" y="558" type="line" smooth="yes"/>
      <point x="42" y="476"/>
      <point x="78.6667" y="435"/>
    </contour>
    <contour>
      <point x="152" y="496" type="curve" smooth="yes"/>
      <point x="123.333" y="496"/>
      <point x="109" y="516.333"/>
      <point x="109" y="557" type="curve" smooth="yes"/>
      <point x="109" y="645" type="line" smooth="yes"/>
      <point x="109" y="686.333"/>
      <point x="123.333" y="707"/>
      <point x="152" y="707" type="curve" smooth="yes"/>
      <point x="179.778" y="707"/>
      <point x="194" y="686.006"/>
      <point x="194" y="645" type="curve" smooth="yes"/>
      <point x="194" y="557" type="line" smooth="yes"/>
      <point x="194" y="516.333"/>
      <point x="180" y="496"/>
    </contour>
  </outline>
</glyph>
<glyph name="onehalf" format="2">
  <advance width="659"/>
  <unicode hex="00BD"/>
  <outline>
    <contour>
      <point x="138" y="0" type="line"/>
      <point x="203" y="0" type="line"/>
      <point x="457" y="707" type="line"/>
      <point x="392" y="707" type="line"/>
    </contour>
    <contour>
      <point x="85" y="280" type="line"/>
      <point x="158" y="280" type="line"/>
      <point x="158" y="708" type="line"/>
      <point x="85" y="708" type="line"/>
      <point x="22" y="658" type="line"/>
      <point x="22" y="577" type="line"/>
      <point x="85" y="628" type="line"/>
    </contour>
    <contour>
      <point x="415" y="0" type="line"/>
      <point x="626" y="0" type="line"/>
      <point x="626" y="64" type="line"/>
      <point x="497" y="64" type="line"/>
      <point x="592" y="212" type="line" smooth="yes"/>
      <point x="617.443" y="251.638"/>
      <point x="626" y="276.05"/>
      <point x="626" y="309" type="curve" smooth="yes"/>
      <point x="626" y="333" type="line" smooth="yes"/>
      <point x="626" y="394.699"/>
      <point x="584.298" y="436"/>
      <point x="522" y="436" type="curve" smooth="yes"/>
      <point x="458.431" y="436"/>
      <point x="417" y="395.752"/>
      <point x="417" y="334" type="curve" smooth="yes"/>
      <point x="417" y="303" type="line"/>
      <point x="485" y="303" type="line"/>
      <point x="485" y="326" type="line" smooth="yes"/>
      <point x="485" y="357.333"/>
      <point x="496.667" y="373"/>
      <point x="520" y="373" type="curve" smooth="yes"/>
      <point x="542.556" y="373"/>
      <point x="555" y="358.067"/>
      <point x="555" y="331" type="curve" smooth="yes"/>
      <point x="555" y="311" type="line" smooth="yes"/>
      <point x="555" y="286.06"/>
      <point x="549.593" y="269.592"/>
      <point x="533" y="244" type="curve" smooth="yes"/>
      <point x="415" y="62" type="line"/>
    </contour>
  </outline>
</glyph>
<glyph name="questiondown" format="2">
  <advance width="371"/>
  <unicode hex="00BF"/>
  <outline>
    <contour>
      <point x="148" y="430" type="line"/>
      <point x="228" y="430" type="line"/>
      <point x="228" y="529" type="line"/>
      <point x="148" y="529" type="line"/>
    </contour>
    <contour>
      <point x="266" y="25" type="line"/>
      <point x="266" y="-67.0513"/>
      <point x="244.984" y="-101"/>
      <point x="188" y="-101" type="curve" smooth="yes"/>
      <point x="138" y="-101"/>
      <point x="113" y="-67.6667"/>
      <point x="113" y="-1" type="curve" smooth="yes"/>
      <point x="113" y="42.5404"/>
      <point x="120.77" y="68.1369"/>
      <point x="147" y="111" type="curve" smooth="yes"/>
      <point x="188" y="178" type="line" smooth="yes"/>
      <point x="219.153" y="228.908"/>
      <point x="226" y="250.892"/>
      <point x="226" y="300" type="curve" smooth="yes"/>
      <point x="226" y="340" type="line"/>
      <point x="152" y="340" type="line"/>
      <point x="152" y="304" type="line" smooth="yes"/>
      <point x="152" y="263.711"/>
      <point x="146.744" y="245.69"/>
      <point x="124" y="208" type="curve" smooth="yes"/>
      <point x="89" y="150" type="line" smooth="yes"/>
      <point x="49.8424" y="85.1102"/>
      <point x="38" y="50.0475"/>
      <point x="38" y="-1" type="curve" smooth="yes"/>
      <point x="38" y="-107.348"/>
      <point x="92.8408" y="-168"/>
      <point x="189" y="-168" type="curve" smooth="yes"/>
      <point x="289" y="-168"/>
      <point x="339.667" y="-103.667"/>
      <point x="341" y="25" type="curve"/>
    </contour>
  </outline>
</glyph>
<glyph name="eth" format="2">
  <advance width="415"/>
  <unicode hex="00F0"/>
  <outline>
    <contour>
      <point x="249" y="471" type="line"/>
      <point x="233.667" y="479"/>
      <point x="214" y="483"/>
      <point x="190" y="483" type="curve" smooth="yes"/>
      <point x="97.3333" y="483"/>
      <point x="51" y="421.333"/>
      <point x="51" y="298" type="curve" smooth="yes"/>
      <point x="51" y="182" type="line" smooth="yes"/>
      <point x="51" y="54.6667"/>
      <point x="103" y="-9"/>
      <point x="207" y="-9" type="curve" smooth="yes"/>
      <point x="312.335" y="-9"/>
      <point x="365" y="54.6666"/>
      <point x="365" y="184" type="curve" smooth="yes"/>
      <point x="365" y="287" type="line" smooth="yes"/>
      <point x="365" y="375.06"/>
      <point x="348.52" y="431.427"/>
      <point x="296" y="523" type="curve" smooth="yes"/>
      <point x="257" y="591" type="line"/>
      <point x="328" y="613" type="line"/>
      <point x="312" y="666" type="line"/>
      <point x="229" y="639" type="line"/>
      <point x="188" y="710" type="line"/>
      <point x="111" y="710" type="line"/>
      <point x="164" y="617" type="line"/>
      <point x="89" y="594" type="line"/>
      <point x="105" y="542" type="line"/>
      <point x="191" y="569" type="line"/>
    </contour>
    <contour>
      <point x="208" y="54" type="curve" smooth="yes"/>
      <point x="150" y="54"/>
      <point x="121" y="92.6667"/>
      <point x="121" y="170" type="curve" smooth="yes"/>
      <point x="121" y="307" type="line" smooth="yes"/>
      <point x="121" y="383"/>
      <point x="150" y="421"/>
      <point x="208" y="421" type="curve" smooth="yes"/>
      <point x="266" y="421"/>
      <point x="295" y="382.667"/>
      <point x="295" y="306" type="curve" smooth="yes"/>
      <point x="295" y="170" type="line" smooth="yes"/>
      <point x="295" y="92.6667"/>
      <point x="266" y="54"/>
    </contour>
  </outline>
</glyph>
<glyph name="oslash" format="2">
  <advance width="418"/>
  <unicode hex="00F8"/>
  <anchor x="211" y="590" name="top"/>
  <outline>
    <component base="o"/>
    <contour>
      <point x="51" y="-31" type="line"/>
      <point x="92" y="-31" type="line"/>
      <point x="368" y="557" type="line"/>
      <point x="327" y="557" type="line"/>
    </contour>
  </outline>
  <guideline angle="90" name="h1" x="211" y="0"/>
</glyph>
<glyph name="thorn" format="2">
  <advance width="421"/>
  <unicode hex="00FE"/>
  <outline>
    <contour>
      <point x="60" y="-156" type="line"/>
      <point x="130" y="-156" type="line"/>
      <point x="130" y="48" type="line"/>
      <point x="152.667" y="10.6667"/>
      <point x="186.333" y="-8"/>
      <point x="231" y="-8" type="curve" smooth="yes"/>
      <point x="320.185" y="-8"/>
      <point x="371" y="57.3333"/>
      <point x="371" y="172" type="curve" smooth="yes"/>
      <point x="371" y="357" type="line" smooth="yes"/>
      <point x="371" y="472.248"/>
      <point x="319.779" y="538"/>
      <point x="230" y="538" type="curve"/>
      <point x="186.667" y="537.333"/>
      <point x="153.333" y="517.333"/>
      <point x="130" y="478" type="curve"/>
      <point x="130" y="707" type="line"/>
      <point x="60" y="707" type="line"/>
    </contour>
    <contour>
      <point x="218" y="54" type="curve" smooth="yes"/>
      <point x="160.704" y="54"/>
      <point x="130" y="97.6136"/>
      <point x="130" y="179" type="curve" smooth="yes"/>
      <point x="130" y="348" type="line" smooth="yes"/>
      <point x="130" y="431.371"/>
      <point x="160.231" y="475"/>
      <point x="218" y="475" type="curve" smooth="yes"/>
      <point x="273.333" y="475"/>
      <point x="301" y="433"/>
      <point x="301" y="349" type="curve" smooth="yes"/>
      <point x="301" y="180" type="line" smooth="yes"/>
      <point x="301" y="96.334"/>
      <point x="273.113" y="54"/>
    </contour>
  </outline>
</glyph>
<glyph name="dotlessi" format="2">
  <advance width="202"/>
  <unicode hex="0131"/>
  <anchor x="101" y="590" name="top"/>
  <outline>
    <contour>
      <point x="67" y="0" type="line"/>
      <point x="136" y="0" type="line"/>
      <point x="136" y="529" type="line"/>
      <point x="67" y="529" type="line"/>
    </contour>
  </outline>
  <guideline angle="90" name="h1" x="101" y="0"/>
</glyph>
<glyph name="lcaron" format="2">
  <advance width="263"/>
  <unicode hex="013E"/>
  <outline>
    <component base="l"/>
    <contour>
      <point x="197" y="562" type="line"/>
      <point x="263" y="618" type="line"/>
      <point x="263" y="707" type="line"/>
      <point x="197" y="707" type="line"/>
    </contour>
  </outline>
</glyph>
<glyph name="Eng" format="2">
  <advance width="514"/>
  <unicode hex="014A"/>
  <outline>
    <contour>
      <point x="61" y="0" type="line"/>
      <point x="136" y="0" type="line"/>
      <point x="136" y="543" type="line"/>
      <point x="378" y="0" type="line"/>
      <point x="378" y="-30" type="line" smooth="yes"/>
      <point x="378" y="-85.7609"/>
      <point x="356.5" y="-111"/>
      <point x="309" y="-111" type="curve" smooth="yes"/>
      <point x="294" y="-111" type="line"/>
      <point x="294" y="-173" type="line"/>
      <point x="311" y="-173" type="line" smooth="yes"/>
      <point x="402.675" y="-173"/>
      <point x="453" y="-123.384"/>
      <point x="453" y="-33" type="curve" smooth="yes"/>
      <point x="453" y="707" type="line"/>
      <point x="378" y="707" type="line"/>
      <point x="378" y="163" type="line"/>
      <point x="136" y="707" type="line"/>
      <point x="61" y="707" type="line"/>
    </contour>
  </outline>
</glyph>
<glyph name="OE" format="2">
  <advance width="699"/>
  <unicode hex="0152"/>
  <outline>
    <contour>
      <point x="369" y="0" type="line"/>
      <point x="663" y="0" type="line"/>
      <point x="663" y="67" type="line"/>
      <point x="435" y="67" type="line"/>
      <point x="436" y="326" type="line"/>
      <point x="629" y="326" type="line"/>
      <point x="629" y="393" type="line"/>
      <point x="436" y="393" type="line"/>
      <point x="435" y="640" type="line"/>
      <point x="663" y="640" type="line"/>
      <point x="663" y="707" type="line"/>
      <point x="369" y="707" type="line"/>
      <point x="369" y="668" type="line"/>
      <point x="337" y="700.667"/>
      <point x="293.667" y="717"/>
      <point x="239" y="717" type="curve" smooth="yes"/>
      <point x="118.802" y="717"/>
      <point x="53" y="640.939"/>
      <point x="53" y="502" type="curve" smooth="yes"/>
      <point x="53" y="206" type="line" smooth="yes"/>
      <point x="53" y="68.0358"/>
      <point x="119.087" y="-8"/>
      <point x="239" y="-8" type="curve" smooth="yes"/>
      <point x="294.333" y="-8"/>
      <point x="337.667" y="9"/>
      <point x="369" y="43" type="curve"/>
    </contour>
    <contour>
      <point x="246" y="59" type="curve" smooth="yes"/>
      <point x="167.331" y="59"/>
      <point x="128" y="108.333"/>
      <point x="128" y="205" type="curve" smooth="yes"/>
      <point x="128" y="495" type="line" smooth="yes"/>
      <point x="128" y="598.333"/>
      <point x="166.823" y="649"/>
      <point x="246" y="649" type="curve" smooth="yes"/>
      <point x="322.165" y="649"/>
      <point x="361" y="596.994"/>
      <point x="361" y="495" type="curve" smooth="yes"/>
      <point x="361" y="205" type="line" smooth="yes"/>
      <point x="361" y="109.783"/>
      <point x="321" y="59"/>
    </contour>
  </outline>
</glyph>
<glyph name="tbar" format="2">
  <advance width="302"/>
  <unicode hex="0167"/>
  <outline>
    <component base="t"/>
    <contour>
      <point x="28" y="332" type="line"/>
      <point x="266" y="332" type="line"/>
      <point x="266" y="388" type="line"/>
      <point x="28" y="388" type="line"/>
    </contour>
  </outline>
</glyph>
<glyph name="Schwa" format="2">
  <advance width="489"/>
  <unicode hex="018F"/>
  <outline>
    <contour>
      <point x="128" y="502" type="line"/>
      <point x="128" y="511" type="line" smooth="yes"/>
      <point x="128" y="600.439"/>
      <point x="168.116" y="649"/>
      <point x="242" y="649" type="curve" smooth="yes"/>
      <point x="321.336" y="649"/>
      <point x="361" y="599.667"/>
      <point x="361" y="503" type="curve" smooth="yes"/>
      <point x="361" y="214" type="line" smooth="yes"/>
      <point x="361" y="110.431"/>
      <point x="322.03" y="60"/>
      <point x="242" y="60" type="curve" smooth="yes"/>
      <point x="167.705" y="60"/>
      <point x="128" y="108.76"/>
      <point x="128" y="200" type="curve" smooth="yes"/>
      <point x="128" y="381.003" type="line"/>
      <point x="53" y="381.003" type="line"/>
      <point x="53" y="198" type="line" smooth="yes"/>
      <point x="53" y="68.6175"/>
      <point x="123.667" y="-8"/>
      <point x="243" y="-8" type="curve" smooth="yes"/>
      <point x="365.633" y="-8"/>
      <point x="436" y="70.3886"/>
      <point x="436" y="207" type="curve" smooth="yes"/>
      <point x="436" y="502" type="line" smooth="yes"/>
      <point x="436" y="636.451"/>
      <point x="363.885" y="716"/>
      <point x="242" y="716" type="curve" smooth="yes"/>
      <point x="124.333" y="716"/>
      <point x="55" y="640.364"/>
      <point x="55" y="512" type="curve" smooth="yes"/>
      <point x="55" y="502" type="line"/>
    </contour>
    <contour>
      <point x="68.456" y="381" type="line"/>
      <point x="68.456" y="315" type="line"/>
      <point x="412.009" y="315" type="line"/>
      <point x="412.009" y="381" type="line"/>
    </contour>
  </outline>
</glyph>
<glyph name="kcaron" format="2">
  <advance width="418"/>
  <unicode hex="01E9"/>
  <outline>
    <contour>
      <point x="60" y="0" type="line"/>
      <point x="130" y="0" type="line"/>
      <point x="130" y="157" type="line"/>
      <point x="202" y="262" type="line"/>
      <point x="324" y="0" type="line"/>
      <point x="403" y="0" type="line"/>
      <point x="245" y="326" type="line"/>
      <point x="384" y="529" type="line"/>
      <point x="307" y="529" type="line"/>
      <point x="130" y="254" type="line"/>
      <point x="130" y="707" type="line"/>
      <point x="60" y="707" type="line"/>
    </contour>
    <contour>
      <point x="63" y="777" type="line"/>
      <point x="129" y="777" type="line"/>
      <point x="231" y="923" type="line"/>
      <point x="163" y="923" type="line"/>
      <point x="98" y="831" type="line"/>
      <point x="33" y="923" type="line"/>
      <point x="-36" y="923" type="line"/>
    </contour>
  </outline>
</glyph>
<glyph name="apostrophemod" format="2">
  <unicode hex="02BC"/>
  <anchor x="35" y="707" name="_dot"/>
  <outline>
    <contour>
      <point x="-35" y="467" type="line"/>
      <point x="35" y="527" type="line"/>
      <point x="35" y="707" type="line"/>
      <point x="-35" y="707" type="line"/>
    </contour>
  </outline>
</glyph>
<glyph name="breve" format="2">
  <advance width="391"/>
  <unicode hex="02D8"/>
  <outline>
    <contour>
      <point x="68" y="730" type="line"/>
      <point x="68" y="712" type="line" smooth="yes"/>
      <point x="68" y="625.213"/>
      <point x="112.746" y="578"/>
      <point x="195" y="578" type="curve" smooth="yes"/>
      <point x="277.254" y="578"/>
      <point x="322" y="625.213"/>
      <point x="322" y="712" type="curve" smooth="yes"/>
      <point x="322" y="730" type="line"/>
      <point x="256" y="730" type="line"/>
      <point x="256" y="712" type="line" smooth="yes"/>
      <point x="256" y="662.131"/>
      <point x="236.108" y="638"/>
      <point x="195" y="638" type="curve" smooth="yes"/>
      <point x="153.892" y="638"/>
      <point x="134" y="662.131"/>
      <point x="134" y="712" type="curve" smooth="yes"/>
      <point x="134" y="730" type="line"/>
    </contour>
  </outline>
</glyph>
<glyph name="tilde" format="2">
  <advance width="513"/>
  <unicode hex="02DC"/>
  <outline>
    <contour>
      <point x="146" y="583" type="line"/>
      <point x="171.818" y="612.895"/>
      <point x="186.06" y="622"/>
      <point x="207" y="622" type="curve" smooth="yes"/>
      <point x="238.036" y="622"/>
      <point x="258.252" y="586"/>
      <point x="304" y="586" type="curve" smooth="yes"/>
      <point x="329.467" y="586"/>
      <point x="344.612" y="594.414"/>
      <point x="367" y="621" type="curve"/>
      <point x="367" y="692" type="line"/>
      <point x="338.282" y="660.41"/>
      <point x="328.667" y="654"/>
      <point x="310" y="654" type="curve" smooth="yes"/>
      <point x="271.822" y="654"/>
      <point x="252.675" y="691"/>
      <point x="210" y="691" type="curve" smooth="yes"/>
      <point x="186.171" y="691"/>
      <point x="171.618" y="683.041"/>
      <point x="146" y="656" type="curve"/>
    </contour>
  </outline>
</glyph>
<glyph name="hungarumlaut" format="2">
  <advance width="512"/>
  <unicode hex="02DD"/>
  <outline>
    <contour>
      <point x="156" y="590" type="line"/>
      <point x="214" y="590" type="line"/>
      <point x="325" y="722" type="line"/>
      <point x="249" y="722" type="line"/>
    </contour>
    <contour>
      <point x="296" y="590" type="line"/>
      <point x="354" y="590" type="line"/>
      <point x="465" y="722" type="line"/>
      <point x="389" y="722" type="line"/>
    </contour>
  </outline>
</glyph>
<glyph name="uni0300" format="2">
  <unicode hex="0300"/>
  <anchor x="0" y="590" name="_top"/>
  <outline>
    <contour>
      <point x="-13" y="590" type="line"/>
      <point x="45" y="590" type="line"/>
      <point x="-48" y="722" type="line"/>
      <point x="-124" y="722" type="line"/>
    </contour>
  </outline>
  <guideline angle="90" name="h1" x="0" y="0"/>
</glyph>
<glyph name="uni0302" format="2">
  <unicode hex="0302"/>
  <anchor x="0" y="590" name="_top"/>
  <outline>
    <contour>
      <point x="-133.5" y="582" type="line"/>
      <point x="-65.5" y="582" type="line"/>
      <point x="0.5" y="674" type="line"/>
      <point x="65.5" y="582" type="line"/>
      <point x="133.5" y="582" type="line"/>
      <point x="31.5" y="728" type="line"/>
      <point x="-34.5" y="728" type="line"/>
    </contour>
  </outline>
  <guideline angle="90" name="h1" x="0" y="0"/>
</glyph>
<glyph name="uni030B" format="2">
  <unicode hex="030B"/>
  <anchor x="0" y="590" name="_top"/>
  <outline>
    <contour>
      <point x="-100" y="590" type="line"/>
      <point x="-42" y="590" type="line"/>
      <point x="69" y="722" type="line"/>
      <point x="-7" y="722" type="line"/>
    </contour>
    <contour>
      <point x="40" y="590" type="line"/>
      <point x="98" y="590" type="line"/>
      <point x="209" y="722" type="line"/>
      <point x="133" y="722" type="line"/>
    </contour>
  </outline>
</glyph>
<glyph name="uni030C" format="2">
  <unicode hex="030C"/>
  <anchor x="0" y="590" name="_top"/>
  <outline>
    <contour>
      <point x="-34.5" y="590" type="line"/>
      <point x="31.5" y="590" type="line"/>
      <point x="133.5" y="736" type="line"/>
      <point x="65.5" y="736" type="line"/>
      <point x="0.5" y="644" type="line"/>
      <point x="-64.5" y="736" type="line"/>
      <point x="-133.5" y="736" type="line"/>
    </contour>
  </outline>
  <guideline angle="90" name="h1" x="0" y="0"/>
</glyph>
<glyph name="uni0312" format="2">
  <unicode hex="0312"/>
  <outline>
    <contour>
      <point x="-66" y="590" type="line"/>
      <point x="9" y="590" type="line"/>
      <point x="103" y="722" type="line"/>
      <point x="45" y="722" type="line"/>
    </contour>
  </outline>
</glyph>
<glyph name="Gecyr" format="2">
  <advance width="406"/>
  <unicode hex="0413"/>
  <anchor x="231" y="760" name="top"/>
  <outline>
    <contour>
      <point x="115.82" y="640" type="line"/>
      <point x="376" y="640" type="line"/>
      <point x="376" y="707" type="line"/>
      <point x="115.82" y="707" type="line"/>
    </contour>
    <contour>
      <point x="61" y="0" type="line"/>
      <point x="136" y="0" type="line"/>
      <point x="136" y="707.034" type="line"/>
      <point x="61" y="707" type="line"/>
    </contour>
  </outline>
  <guideline angle="90" name="h1" x="231" y="0"/>
</glyph>
<glyph name="Zecyr" format="2">
  <advance width="457"/>
  <unicode hex="0417"/>
  <outline>
    <contour>
      <point x="61.3184" y="200" type="line"/>
      <point x="61.3184" y="191.243" type="line" smooth="yes"/>
      <point x="61.3184" y="56.9585"/>
      <point x="137.945" y="-8"/>
      <point x="231.318" y="-8" type="curve" smooth="yes"/>
      <point x="356.035" y="-8"/>
      <point x="404" y="63.5405"/>
      <point x="404" y="195" type="curve" smooth="yes"/>
      <point x="404" y="208" type="line" smooth="yes"/>
      <point x="404" y="296.007"/>
      <point x="367.506" y="349.218"/>
      <point x="304" y="367" type="curve"/>
      <point x="366" y="389.667"/>
      <point x="397" y="441.333"/>
      <point x="397" y="522" type="curve" smooth="yes"/>
      <point x="397" y="541" type="line" smooth="yes"/>
      <point x="397" y="652.636"/>
      <point x="338.162" y="716"/>
      <point x="234.499" y="716" type="curve" smooth="yes"/>
      <point x="130.187" y="716"/>
      <point x="61.3284" y="637.593"/>
      <point x="61.3284" y="518.816" type="curve" smooth="yes"/>
      <point x="61.3284" y="510.448" type="line"/>
      <point x="136.338" y="510.325" type="line"/>
      <point x="136.338" y="518.816" type="line" smooth="yes"/>
      <point x="136.338" y="601.195"/>
      <point x="172.449" y="649"/>
      <point x="234.675" y="649" type="curve" smooth="yes"/>
      <point x="288.624" y="649"/>
      <point x="322" y="607.34"/>
      <point x="322" y="540" type="curve" smooth="yes"/>
      <point x="322" y="518" type="line" smooth="yes"/>
      <point x="322" y="438.664"/>
      <point x="286" y="399"/>
      <point x="212" y="399" type="curve" smooth="yes"/>
      <point x="176.277" y="399" type="line"/>
      <point x="176.277" y="333" type="line"/>
      <point x="213" y="333" type="line" smooth="yes"/>
      <point x="290.333" y="333"/>
      <point x="329" y="288.667"/>
      <point x="329" y="200" type="curve" smooth="yes"/>
      <point x="329" y="181" type="line" smooth="yes"/>
      <point x="329" y="101.51"/>
      <point x="300.583" y="59"/>
      <point x="241.45" y="59" type="curve" smooth="yes"/>
      <point x="184.932" y="59"/>
      <point x="136.316" y="92.7331"/>
      <point x="136.316" y="191.243" type="curve" smooth="yes"/>
      <point x="136.316" y="199.675" type="line"/>
    </contour>
  </outline>
</glyph>
<glyph name="Icyr" format="2">
  <advance width="506"/>
  <unicode hex="0418"/>
  <anchor x="238" y="760" name="top"/>
  <outline>
    <contour>
      <point x="61" y="0" type="line"/>
      <point x="146" y="0" type="line"/>
      <point x="337.292" y="473.252" type="line" smooth="yes"/>
      <point x="353.564" y="513.508"/>
      <point x="364.955" y="551.285"/>
      <point x="377.587" y="598.181" type="curve"/>
      <point x="380.554" y="597.819" type="line"/>
      <point x="372.809" y="555.843"/>
      <point x="369.57" y="486.535"/>
      <point x="369.57" y="446.745" type="curve" smooth="yes"/>
      <point x="369.57" y="0" type="line"/>
      <point x="444.57" y="0" type="line"/>
      <point x="444.57" y="707" type="line"/>
      <point x="359.57" y="707" type="line"/>
      <point x="182.818" y="271.923" type="line" smooth="yes"/>
      <point x="160.226" y="216.314"/>
      <point x="143.008" y="158.133"/>
      <point x="127.984" y="98.8191" type="curve"/>
      <point x="125.017" y="99.181" type="line"/>
      <point x="133.445" y="143.553"/>
      <point x="136" y="200.142"/>
      <point x="136" y="239.774" type="curve" smooth="yes"/>
      <point x="136" y="707" type="line"/>
      <point x="61" y="707" type="line"/>
    </contour>
  </outline>
  <guideline angle="90" name="h1" x="238" y="0"/>
</glyph>
<glyph name="Tsecyr" format="2">
  <advance width="480"/>
  <unicode hex="0426"/>
  <outline>
    <contour>
      <point x="335" y="0" type="line"/>
      <point x="410" y="0" type="line"/>
      <point x="410" y="707" type="line"/>
      <point x="335" y="707" type="line"/>
    </contour>
    <contour>
      <point x="105.166" y="0" type="line"/>
      <point x="295.346" y="0" type="line"/>
      <point x="295.346" y="67" type="line"/>
      <point x="105.166" y="67" type="line"/>
    </contour>
    <contour>
      <point x="61" y="0" type="line"/>
      <point x="136" y="0" type="line"/>
      <point x="136" y="707" type="line"/>
      <point x="61" y="707" type="line"/>
    </contour>
    <contour>
      <point x="275.81" y="0" type="line"/>
      <point x="394.94" y="0" type="line"/>
      <point x="394.94" y="-170" type="line"/>
      <point x="469.94" y="-170" type="line"/>
      <point x="469.94" y="66.73" type="line"/>
      <point x="275.81" y="67" type="line"/>
    </contour>
  </outline>
</glyph>
<glyph name="Checyr" format="2">
  <advance width="492"/>
  <unicode hex="0427"/>
  <outline>
    <contour>
      <point x="355" y="307.553" type="line"/>
      <point x="322.855" y="290.33"/>
      <point x="301.782" y="289"/>
      <point x="246" y="289" type="curve" smooth="yes"/>
      <point x="177.591" y="289"/>
      <point x="137" y="336.262"/>
      <point x="137" y="414" type="curve" smooth="yes"/>
      <point x="137" y="707" type="line"/>
      <point x="61" y="707" type="line"/>
      <point x="61" y="410" type="line" smooth="yes"/>
      <point x="61" y="299.881"/>
      <point x="137.638" y="222"/>
      <point x="246" y="222" type="curve" smooth="yes"/>
      <point x="312.253" y="222"/>
      <point x="357.273" y="235.968"/>
      <point x="394.075" y="259.633" type="curve"/>
      <point x="393.58" y="307.553" type="line"/>
    </contour>
    <contour>
      <point x="355" y="0" type="line"/>
      <point x="431" y="0" type="line"/>
      <point x="431" y="707" type="line"/>
      <point x="355" y="707" type="line"/>
    </contour>
  </outline>
</glyph>
<glyph name="Shchacyr" format="2">
  <advance width="821"/>
  <unicode hex="0429"/>
  <outline>
    <contour>
      <point x="61" y="0" type="line"/>
      <point x="137" y="0" type="line"/>
      <point x="137" y="707" type="line"/>
      <point x="61" y="707" type="line"/>
    </contour>
    <contour>
      <point x="370.438" y="0" type="line"/>
      <point x="446.438" y="0" type="line"/>
      <point x="446.438" y="707" type="line"/>
      <point x="370.438" y="707" type="line"/>
    </contour>
    <contour>
      <point x="678.462" y="0" type="line"/>
      <point x="754.462" y="0" type="line"/>
      <point x="754.462" y="707" type="line"/>
      <point x="678.462" y="707" type="line"/>
    </contour>
    <contour>
      <point x="106.166" y="0" type="line"/>
      <point x="735.28" y="0" type="line"/>
      <point x="735.28" y="67" type="line"/>
      <point x="106.166" y="67" type="line"/>
    </contour>
    <contour>
      <point x="616.15" y="0" type="line"/>
      <point x="735.28" y="0" type="line"/>
      <point x="735.28" y="-170" type="line"/>
      <point x="810.28" y="-170" type="line"/>
      <point x="810.28" y="66.73" type="line"/>
      <point x="616.15" y="67" type="line"/>
    </contour>
  </outline>
</glyph>
<glyph name="decyr" format="2">
  <advance width="473"/>
  <unicode hex="0434"/>
  <outline>
    <contour>
      <point x="384" y="-170" type="line"/>
      <point x="453" y="-170" type="line"/>
      <point x="453" y="63" type="line"/>
      <point x="363" y="63" type="line"/>
      <point x="363" y="0" type="line"/>
      <point x="384" y="0" type="line"/>
    </contour>
    <contour>
      <point x="20" y="-170" type="line"/>
      <point x="89" y="-170" type="line"/>
      <point x="89" y="63.2016" type="line"/>
      <point x="20" y="63.2016" type="line"/>
    </contour>
    <contour>
      <point x="325" y="0" type="line"/>
      <point x="394" y="0" type="line"/>
      <point x="394" y="529" type="line"/>
      <point x="325" y="529" type="line"/>
    </contour>
    <contour>
      <point x="59.6341" y="62.5927" type="curve"/>
      <point x="89.2346" y="0" type="line"/>
      <point x="161.559" y="0"/>
      <point x="182.275" y="167.064"/>
      <point x="189" y="258.144" type="curve" smooth="yes"/>
      <point x="209" y="529" type="line"/>
      <point x="140" y="529" type="line"/>
      <point x="120" y="290.344" type="line" smooth="yes"/>
      <point x="108.443" y="152.442"/>
      <point x="95.4908" y="63.3136"/>
    </contour>
    <contour>
      <point x="68.8" y="-0.4073" type="line"/>
      <point x="345.243" y="-0.4073" type="line"/>
      <point x="345.243" y="62.5927" type="line"/>
      <point x="68.8" y="62.5927" type="line"/>
    </contour>
    <contour>
      <point x="178.057" y="466.146" type="line"/>
      <point x="345.243" y="466.146" type="line"/>
      <point x="345.243" y="529.146" type="line"/>
      <point x="178.057" y="529.146" type="line"/>
    </contour>
  </outline>
  <guideline angle="265.217" x="140" y="529"/>
  <guideline angle="85.7792" x="189" y="258"/>
</glyph>
<glyph name="zhecyr" format="2">
  <advance width="644"/>
  <unicode hex="0436"/>
  <outline>
    <component base="kacyr" xOffset="227"/>
    <contour>
      <point x="288" y="258" type="line"/>
      <point x="114" y="529" type="line"/>
      <point x="37" y="529" type="line"/>
      <point x="206" y="258" type="line"/>
    </contour>
    <contour>
      <point x="93" y="0" type="line"/>
      <point x="245" y="249" type="line"/>
      <point x="202" y="313" type="line"/>
      <point x="14" y="0" type="line"/>
    </contour>
    <contour>
      <point x="308" y="250" type="line"/>
      <point x="308" y="313" type="line"/>
      <point x="195" y="313" type="line"/>
      <point x="195" y="250" type="line"/>
    </contour>
  </outline>
</glyph>
<glyph name="kacyr" format="2">
  <advance width="417"/>
  <unicode hex="043A"/>
  <anchor x="214" y="590" name="top"/>
  <outline>
    <contour>
      <point x="60" y="0" type="line"/>
      <point x="130" y="0" type="line"/>
      <point x="130" y="529" type="line"/>
      <point x="60" y="529" type="line"/>
    </contour>
    <contour>
      <point x="129" y="258" type="line"/>
      <point x="211" y="258" type="line"/>
      <point x="380" y="529" type="line"/>
      <point x="303" y="529" type="line"/>
    </contour>
    <contour>
      <point x="324" y="0" type="line"/>
      <point x="403" y="0" type="line"/>
      <point x="215" y="313" type="line"/>
      <point x="172" y="249" type="line"/>
    </contour>
    <contour>
      <point x="109" y="250" type="line"/>
      <point x="222" y="250" type="line"/>
      <point x="222" y="313" type="line"/>
      <point x="109" y="313" type="line"/>
    </contour>
  </outline>
  <guideline angle="58.0517" x="211" y="258"/>
  <guideline angle="301.402" x="172" y="249"/>
  <guideline angle="0" x="0" y="343"/>
  <guideline angle="0" x="0" y="258"/>
  <guideline angle="237.358" x="303" y="529"/>
  <guideline angle="120.991" x="403" y="0"/>
  <guideline angle="0" x="0" y="277"/>
  <guideline angle="237.297" x="303" y="529"/>
  <guideline angle="58.0517" x="211" y="258"/>
  <guideline angle="90" name="h1" x="214" y="0"/>
</glyph>
<glyph name="elcyr" format="2">
  <advance width="405"/>
  <unicode hex="043B"/>
  <outline>
    <contour>
      <point x="276" y="0" type="line"/>
      <point x="345" y="0" type="line"/>
      <point x="345" y="529" type="line"/>
      <point x="276" y="529" type="line"/>
    </contour>
    <contour>
      <point x="129.057" y="466.146" type="line"/>
      <point x="296.243" y="466.146" type="line"/>
      <point x="296.243" y="529.146" type="line"/>
      <point x="129.057" y="529.146" type="line"/>
    </contour>
    <contour>
      <point x="10.6341" y="62.5927" type="curve"/>
      <point x="10.6341" y="0" type="line"/>
      <point x="85.8018" y="0"/>
      <point x="123.269" y="31.2964"/>
      <point x="128.297" y="99.4178" type="curve" smooth="yes"/>
      <point x="160" y="529" type="line"/>
      <point x="91" y="529" type="line"/>
      <point x="56.9563" y="122.763" type="line" smooth="yes"/>
      <point x="53.931" y="86.6619"/>
      <point x="46.4909" y="63.3136"/>
    </contour>
  </outline>
  <guideline angle="265.217" x="91" y="529"/>
  <guideline angle="85.7792" x="140" y="258"/>
</glyph>
<glyph name="emcyr" format="2">
  <advance width="582"/>
  <unicode hex="043C"/>
  <outline>
    <contour>
      <point x="60" y="0" type="line"/>
      <point x="129" y="0" type="line"/>
      <point x="129" y="339" type="line" smooth="yes"/>
      <point x="129" y="379"/>
      <point x="125" y="489"/>
      <point x="119" y="529" type="curve"/>
      <point x="60" y="529" type="line"/>
    </contour>
    <contour>
      <point x="295" y="180" type="line"/>
      <point x="289" y="180" type="line"/>
      <point x="284" y="199"/>
      <point x="273.079" y="234.447"/>
      <point x="266" y="250" type="curve" smooth="yes"/>
      <point x="139" y="529" type="line"/>
      <point x="115" y="529" type="line"/>
      <point x="115" y="409" type="line"/>
      <point x="129" y="409" type="line"/>
      <point x="133.045" y="391.712"/>
      <point x="141.768" y="361.479"/>
      <point x="152" y="339" type="curve" smooth="yes"/>
      <point x="279" y="60" type="line"/>
      <point x="295" y="60" type="line"/>
    </contour>
    <contour>
      <point x="286.707" y="60" type="line"/>
      <point x="302.707" y="60" type="line"/>
      <point x="429.707" y="339" type="line" smooth="yes"/>
      <point x="439.94" y="361.479"/>
      <point x="448.663" y="391.712"/>
      <point x="452.707" y="409" type="curve"/>
      <point x="466.707" y="409" type="line"/>
      <point x="466.707" y="529" type="line"/>
      <point x="442.707" y="529" type="line"/>
      <point x="315.707" y="250" type="line" smooth="yes"/>
      <point x="308.628" y="234.447"/>
      <point x="297.707" y="199"/>
      <point x="292.707" y="180" type="curve"/>
      <point x="286.707" y="180" type="line"/>
    </contour>
    <contour>
      <point x="452.708" y="0" type="line"/>
      <point x="521.708" y="0" type="line"/>
      <point x="521.708" y="529" type="line"/>
      <point x="462.708" y="529" type="line"/>
      <point x="457.569" y="488.057"/>
      <point x="452.708" y="379"/>
      <point x="452.708" y="339" type="curve" smooth="yes"/>
    </contour>
  </outline>
</glyph>
<glyph name="ereversedcyr" format="2">
  <advance width="417"/>
  <unicode hex="044D"/>
  <anchor x="210" y="590" name="top"/>
  <outline>
    <component base="c" xScale="-1" xOffset="418"/>
    <contour>
      <point x="189" y="250" type="line"/>
      <point x="315" y="250" type="line"/>
      <point x="315" y="313" type="line"/>
      <point x="189" y="313" type="line"/>
    </contour>
  </outline>
  <guideline angle="90" name="h1" x="210" y="0"/>
</glyph>
<glyph name="yacyr" format="2">
  <advance width="439"/>
  <unicode hex="044F"/>
  <anchor x="241" y="590" name="top"/>
  <outline>
    <contour>
      <point x="167.127" y="205.45" type="line"/>
      <point x="104.734" y="229.543"/>
      <point x="63.9481" y="285.464"/>
      <point x="63.9481" y="369.553" type="curve" smooth="yes"/>
      <point x="63.9481" y="467.102"/>
      <point x="136.476" y="529"/>
      <point x="215.233" y="529" type="curve" smooth="yes"/>
      <point x="330" y="529" type="line"/>
      <point x="330" y="466" type="line"/>
      <point x="235.712" y="466" type="line" smooth="yes"/>
      <point x="181.417" y="466"/>
      <point x="132.948" y="434.37"/>
      <point x="132.948" y="368.101" type="curve" smooth="yes"/>
      <point x="132.948" y="301.833"/>
      <point x="172.586" y="268"/>
      <point x="214.523" y="268" type="curve" smooth="yes"/>
      <point x="330" y="268" type="line"/>
      <point x="330" y="205" type="line"/>
    </contour>
    <contour>
      <point x="379" y="0" type="line"/>
      <point x="310" y="0" type="line"/>
      <point x="310" y="529" type="line"/>
      <point x="379" y="529" type="line"/>
    </contour>
    <contour>
      <point x="59.8125" y="0" type="line"/>
      <point x="158.898" y="237.61" type="line"/>
      <point x="220.995" y="229.22" type="line"/>
      <point x="127.371" y="0" type="line"/>
    </contour>
  </outline>
  <guideline angle="90" name="h1" x="241" y="0"/>
</glyph>
<glyph name="Geupcyr" format="2">
  <advance width="406"/>
  <unicode hex="0490"/>
  <outline>
    <contour>
      <point x="115.82" y="640" type="line"/>
      <point x="376" y="640" type="line"/>
      <point x="376" y="707" type="line"/>
      <point x="115.82" y="707" type="line"/>
    </contour>
    <contour>
      <point x="61" y="0" type="line"/>
      <point x="136" y="0" type="line"/>
      <point x="136" y="707.034" type="line"/>
      <point x="61" y="707" type="line"/>
    </contour>
    <contour>
      <point x="306.193" y="707" type="line"/>
      <point x="375.193" y="707" type="line"/>
      <point x="375.193" y="849.896" type="line"/>
      <point x="306.193" y="849.896" type="line"/>
    </contour>
  </outline>
</glyph>
<glyph name="quoteright" format="2">
  <advance width="153"/>
  <unicode hex="2019"/>
  <anchor x="112" y="707" name="_dot"/>
  <outline>
    <contour>
      <point x="42" y="467" type="line"/>
      <point x="112" y="527" type="line"/>
      <point x="112" y="707" type="line"/>
      <point x="42" y="707" type="line"/>
    </contour>
  </outline>
</glyph>
<glyph name="quotedblright" format="2">
  <advance width="286"/>
  <unicode hex="201D"/>
  <outline>
    <contour>
      <point x="42" y="467" type="line"/>
      <point x="112" y="527" type="line"/>
      <point x="112" y="707" type="line"/>
      <point x="42" y="707" type="line"/>
    </contour>
    <contour>
      <point x="175" y="467" type="line"/>
      <point x="245" y="527" type="line"/>
      <point x="245" y="707" type="line"/>
      <point x="175" y="707" type="line"/>
    </contour>
  </outline>
</glyph>
<glyph name="quotedblbase" format="2">
  <advance width="286"/>
  <unicode hex="201E"/>
  <outline>
    <contour>
      <point x="175" y="-144" type="line"/>
      <point x="245" y="-84" type="line"/>
      <point x="245" y="95" type="line"/>
      <point x="175" y="95" type="line"/>
    </contour>
    <contour>
      <point x="42" y="-144" type="line"/>
      <point x="112" y="-84" type="line"/>
      <point x="112" y="95" type="line"/>
      <point x="42" y="95" type="line"/>
    </contour>
  </outline>
</glyph>
<glyph name="bullet" format="2">
  <advance width="432"/>
  <unicode hex="2022"/>
  <outline>
    <contour>
      <point x="216" y="190" type="curve" smooth="yes"/>
      <point x="287.734" y="190"/>
      <point x="341" y="243.266"/>
      <point x="341" y="315" type="curve" smooth="yes"/>
      <point x="341" y="387.283"/>
      <point x="288.283" y="440"/>
      <point x="216" y="440" type="curve" smooth="yes"/>
      <point x="144.266" y="440"/>
      <point x="91" y="386.734"/>
      <point x="91" y="315" type="curve" smooth="yes"/>
      <point x="91" y="243.912"/>
      <point x="144.912" y="190"/>
    </contour>
  </outline>
</glyph>
<glyph name="ellipsis" format="2">
  <advance width="587"/>
  <unicode hex="2026"/>
  <outline>
    <contour>
      <point x="42" y="0" type="line"/>
      <point x="122" y="0" type="line"/>
      <point x="122" y="91" type="line"/>
      <point x="42" y="91" type="line"/>
    </contour>
    <contour>
      <point x="466" y="0" type="line"/>
      <point x="546" y="0" type="line"/>
      <point x="546" y="91" type="line"/>
      <point x="466" y="91" type="line"/>
    </contour>
    <contour>
      <point x="254" y="0" type="line"/>
      <point x="334" y="0" type="line"/>
      <point x="334" y="91" type="line"/>
      <point x="254" y="91" type="line"/>
    </contour>
  </outline>
</glyph>
<glyph name="four.dnom" format="2">
  <advance width="288"/>
  <outline>
    <contour>
      <point x="24" y="76" type="line"/>
      <point x="161" y="76" type="line"/>
      <point x="161" y="0" type="line"/>
      <point x="232" y="0" type="line"/>
      <point x="232" y="76" type="line"/>
      <point x="264" y="76" type="line"/>
      <point x="264" y="140" type="line"/>
      <point x="232" y="140" type="line"/>
      <point x="232" y="238" type="line"/>
      <point x="161" y="238" type="line"/>
      <point x="161" y="140" type="line"/>
      <point x="95" y="140" type="line"/>
      <point x="189" y="428" type="line"/>
      <point x="118" y="428" type="line"/>
      <point x="24" y="140" type="line"/>
    </contour>
  </outline>
</glyph>
<glyph name="four.numr" format="2">
  <advance width="288"/>
  <outline>
    <contour>
      <point x="24" y="356" type="line"/>
      <point x="161" y="356" type="line"/>
      <point x="161" y="280" type="line"/>
      <point x="232" y="280" type="line"/>
      <point x="232" y="356" type="line"/>
      <point x="264" y="356" type="line"/>
      <point x="264" y="420" type="line"/>
      <point x="232" y="420" type="line"/>
      <point x="232" y="518" type="line"/>
      <point x="161" y="518" type="line"/>
      <point x="161" y="420" type="line"/>
      <point x="95" y="420" type="line"/>
      <point x="189" y="708" type="line"/>
      <point x="118" y="708" type="line"/>
      <point x="24" y="420" type="line"/>
    </contour>
  </outline>
</glyph>
<glyph name="four.tlf" format="2">
  <advance width="418"/>
  <outline>
    <contour>
      <point x="49" y="142" type="line"/>
      <point x="264" y="142" type="line"/>
      <point x="264" y="0" type="line"/>
      <point x="339" y="0" type="line"/>
      <point x="339" y="142" type="line"/>
      <point x="401" y="142" type="line"/>
      <point x="401" y="209" type="line"/>
      <point x="339" y="209" type="line"/>
      <point x="339" y="394" type="line"/>
      <point x="264" y="394" type="line"/>
      <point x="264" y="209" type="line"/>
      <point x="122" y="209" type="line"/>
      <point x="272" y="707" type="line"/>
      <point x="197" y="707" type="line"/>
      <point x="49" y="209" type="line"/>
    </contour>
  </outline>
</glyph>
<glyph name="nine.osf" format="2">
  <advance width="404"/>
  <outline>
    <contour>
      <point x="122" y="-162" type="line"/>
      <point x="197" y="-162" type="line"/>
      <point x="324" y="133" type="line" smooth="yes"/>
      <point x="348.679" y="190.325"/>
      <point x="356" y="224.186"/>
      <point x="356" y="281" type="curve" smooth="yes"/>
      <point x="356" y="375" type="line" smooth="yes"/>
      <point x="356" y="477.118"/>
      <point x="298.268" y="539"/>
      <point x="203" y="539" type="curve" smooth="yes"/>
      <point x="107.189" y="539"/>
      <point x="48" y="477.138"/>
      <point x="48" y="377" type="curve" smooth="yes"/>
      <point x="48" y="269" type="line" smooth="yes"/>
      <point x="48" y="173.922"/>
      <point x="101.379" y="116"/>
      <point x="189" y="116" type="curve" smooth="yes"/>
      <point x="212.238" y="116"/>
      <point x="235.972" y="121.729"/>
      <point x="247" y="130" type="curve"/>
    </contour>
    <contour>
      <point x="203" y="181" type="curve" smooth="yes"/>
      <point x="151.468" y="181"/>
      <point x="123" y="214.45"/>
      <point x="123" y="275" type="curve" smooth="yes"/>
      <point x="123" y="378" type="line" smooth="yes"/>
      <point x="123" y="438.55"/>
      <point x="151.468" y="472"/>
      <point x="203" y="472" type="curve" smooth="yes"/>
      <point x="253.835" y="472"/>
      <point x="282" y="438.131"/>
      <point x="282" y="377" type="curve" smooth="yes"/>
      <point x="282" y="271" type="line" smooth="yes"/>
      <point x="282" y="213.473"/>
      <point x="253.496" y="181"/>
    </contour>
  </outline>
</glyph>
<glyph name="one.numr" format="2">
  <advance width="203"/>
  <outline>
    <contour>
      <point x="85" y="280" type="line"/>
      <point x="158" y="280" type="line"/>
      <point x="158" y="708" type="line"/>
      <point x="85" y="708" type="line"/>
      <point x="22" y="658" type="line"/>
      <point x="22" y="577" type="line"/>
      <point x="85" y="628" type="line"/>
    </contour>
  </outline>
</glyph>
<glyph name="sacute.loclPLK" format="2">
  <advance width="391"/>
  <outline>
    <component base="s"/>
    <contour>
      <point x="168" y="590" type="line"/>
      <point x="226" y="590" type="line"/>
      <point x="261" y="722" type="line"/>
      <point x="186" y="722" type="line"/>
    </contour>
  </outline>
</glyph>
<glyph name="t_t" format="2">
  <advance width="564"/>
  <outline>
    <component base="t"/>
    <component base="t" xOffset="262"/>
    <contour>
      <point x="394.114" y="475" type="line"/>
      <point x="394.114" y="529" type="line"/>
      <point x="130.486" y="529" type="line"/>
      <point x="130.486" y="475" type="line"/>
    </contour>
  </outline>
</glyph>
<glyph name="two.osf" format="2">
  <advance width="401"/>
  <outline>
    <contour>
      <point x="57" y="0" type="line"/>
      <point x="359" y="0" type="line"/>
      <point x="359" y="67" type="line"/>
      <point x="143" y="67" type="line"/>
      <point x="315" y="289" type="line" smooth="yes"/>
      <point x="349.888" y="334.03"/>
      <point x="362" y="363.427"/>
      <point x="362" y="396.604" type="curve" smooth="yes"/>
      <point x="362" y="404.52" type="line" smooth="yes"/>
      <point x="362" y="479.235"/>
      <point x="297.359" y="539"/>
      <point x="210" y="539" type="curve" smooth="yes"/>
      <point x="122.541" y="539"/>
      <point x="57" y="483.469"/>
      <point x="57" y="409.368" type="curve" smooth="yes"/>
      <point x="57" y="394" type="line"/>
      <point x="131" y="394" type="line"/>
      <point x="131" y="398.935" type="line" smooth="yes"/>
      <point x="131" y="443.094"/>
      <point x="160.43" y="471"/>
      <point x="207" y="471" type="curve" smooth="yes"/>
      <point x="260.539" y="471"/>
      <point x="288" y="447.947"/>
      <point x="288" y="403" type="curve" smooth="yes"/>
      <point x="288" y="394.908" type="line" smooth="yes"/>
      <point x="288" y="372.952"/>
      <point x="274.725" y="342.265"/>
      <point x="253" y="314" type="curve" smooth="yes"/>
      <point x="57" y="59" type="line"/>
    </contour>
  </outline>
</glyph>
<glyph name="uni030A0301" format="2">
  <anchor x="0" y="569" name="_t.ring"/>
  <outline>
    <contour>
      <point x="-1" y="569" type="curve" smooth="yes"/>
      <point x="51.9524" y="569"/>
      <point x="91" y="607.623"/>
      <point x="91" y="660" type="curve" smooth="yes"/>
      <point x="91" y="712.667"/>
      <point x="51.6667" y="752"/>
      <point x="-1" y="752" type="curve" smooth="yes"/>
      <point x="-52.4348" y="752"/>
      <point x="-91" y="712.578"/>
      <point x="-91" y="660" type="curve" smooth="yes"/>
      <point x="-91" y="609.006"/>
      <point x="-51.4338" y="569"/>
    </contour>
    <contour>
      <point x="-1" y="609" type="curve" smooth="yes"/>
      <point x="-29.732" y="609"/>
      <point x="-50" y="630.095"/>
      <point x="-50" y="660" type="curve" smooth="yes"/>
      <point x="-50" y="691.197"/>
      <point x="-29.8428" y="713"/>
      <point x="-1" y="713" type="curve" smooth="yes"/>
      <point x="28.7987" y="713"/>
      <point x="49" y="691.587"/>
      <point x="49" y="660" type="curve" smooth="yes"/>
      <point x="49" y="629.659"/>
      <point x="28.7458" y="609"/>
    </contour>
    <contour>
      <point x="-38.5415" y="773" type="line"/>
      <point x="19.4585" y="773" type="line"/>
      <point x="105.341" y="870" type="line"/>
      <point x="29.3409" y="870" type="line"/>
    </contour>
  </outline>
  <guideline angle="0" x="0" y="870"/>
  <guideline angle="234.834" x="54" y="905"/>
</glyph>
<glyph name="zero.numr" format="2">
  <advance width="283"/>
  <outline>
    <contour>
      <point x="141" y="273" type="curve" smooth="yes"/>
      <point x="214.887" y="273"/>
      <point x="249" y="314.062"/>
      <point x="249" y="403" type="curve" smooth="yes"/>
      <point x="249" y="589" type="line" smooth="yes"/>
      <point x="249" y="675.123"/>
      <point x="213.667" y="717"/>
      <point x="141" y="717" type="curve" smooth="yes"/>
      <point x="68.776" y="717"/>
      <point x="34" y="675.399"/>
      <point x="34" y="589" type="curve" smooth="yes"/>
      <point x="34" y="403" type="line" smooth="yes"/>
      <point x="34" y="316.185"/>
      <point x="69.5448" y="273"/>
    </contour>
    <contour>
      <point x="141" y="337" type="curve" smooth="yes"/>
      <point x="114.212" y="337"/>
      <point x="104" y="355.216"/>
      <point x="104" y="403" type="curve" smooth="yes"/>
      <point x="104" y="589" type="line" smooth="yes"/>
      <point x="104" y="634.73"/>
      <point x="114.562" y="653"/>
      <point x="141" y="653" type="curve" smooth="yes"/>
      <point x="168.49" y="653"/>
      <point x="178" y="636.55"/>
      <point x="178" y="589" type="curve" smooth="yes"/>
      <point x="178" y="403" type="line" smooth="yes"/>
      <point x="178" y="356.171"/>
      <point x="167.252" y="337"/>
    </contour>
  </outline>
</glyph>
<glyph name="zhecyr.loclBGR" format="2">
  <advance width="644"/>
  <outline>
    <contour>
      <point x="287" y="0" type="line"/>
      <point x="357" y="0" type="line"/>
      <point x="357" y="707" type="line"/>
      <point x="287" y="707" type="line"/>
    </contour>
    <contour>
      <point x="356" y="258" type="line"/>
      <point x="438" y="258" type="line"/>
      <point x="607" y="529" type="line"/>
      <point x="530" y="529" type="line"/>
    </contour>
    <contour>
      <point x="551" y="0" type="line"/>
      <point x="630" y="0" type="line"/>
      <point x="442" y="313" type="line"/>
      <point x="399" y="249" type="line"/>
    </contour>
    <contour>
      <point x="336" y="250" type="line"/>
      <point x="449" y="250" type="line"/>
      <point x="449" y="313" type="line"/>
      <point x="336" y="313" type="line"/>
    </contour>
    <contour>
      <point x="206" y="258" type="line"/>
      <point x="288" y="258" type="line"/>
      <point x="114" y="529" type="line"/>
      <point x="37" y="529" type="line"/>
    </contour>
    <contour>
      <point x="14" y="0" type="line"/>
      <point x="93" y="0" type="line"/>
      <point x="245" y="249" type="line"/>
      <point x="202" y="313" type="line"/>
    </contour>
    <contour>
      <point x="195" y="250" type="line"/>
      <point x="308" y="250" type="line"/>
      <point x="308" y="313" type="line"/>
      <point x="195" y="313" type="line"/>
    </contour>
  </outline>
</glyph>
